# MagicaVoxel @ Ephtracy

# group
g jalkakaasu

# material
mtllib jalkakaasu.mtl
usemtl palette

# normals
vn -1 0 0
vn 1 0 0
vn 0 0 1
vn 0 0 -1
vn 0 -1 0
vn 0 1 0

# texcoords
vt 0.619141 0.5
vt 0.982422 0.5

# verts
v -3 0 -1
v -3 0 -3
v -3 4 1
v -3 4 -1
v -3 4 -3
v -3 4 -4
v -3 5 1
v -3 5 -4
v -1 0 -1
v -1 0 -3
v -1 4 1
v -1 4 -1
v -1 4 -3
v -1 4 -4
v -1 5 1
v -1 5 -4
v -3 4 1
v -3 5 1
v -1 4 1
v -1 5 1
v -3 0 -1
v -3 4 -1
v -1 0 -1
v -1 4 -1
v -3 0 -3
v -3 4 -3
v -1 0 -3
v -1 4 -3
v -3 4 -4
v -3 5 -4
v -1 4 -4
v -1 5 -4
v -3 0 -1
v -1 0 -1
v -3 0 -3
v -1 0 -3
v -3 4 1
v -1 4 1
v -3 4 -1
v -1 4 -1
v -3 4 -3
v -1 4 -3
v -3 4 -4
v -1 4 -4
v -3 5 1
v -1 5 1
v -3 5 -4
v -1 5 -4

# faces
f 4/2/1 2/2/1 1/2/1
f 5/2/1 2/2/1 4/2/1
f 7/1/1 4/1/1 3/1/1
f 7/1/1 6/1/1 5/1/1
f 7/1/1 5/1/1 4/1/1
f 8/1/1 6/1/1 7/1/1
f 9/2/2 10/2/2 12/2/2
f 12/2/2 10/2/2 13/2/2
f 11/1/2 12/1/2 15/1/2
f 13/1/2 14/1/2 15/1/2
f 12/1/2 13/1/2 15/1/2
f 15/1/2 14/1/2 16/1/2
f 19/1/3 18/1/3 17/1/3
f 20/1/3 18/1/3 19/1/3
f 23/2/3 22/2/3 21/2/3
f 24/2/3 22/2/3 23/2/3
f 25/2/4 26/2/4 27/2/4
f 27/2/4 26/2/4 28/2/4
f 29/1/4 30/1/4 31/1/4
f 31/1/4 30/1/4 32/1/4
f 35/2/5 34/2/5 33/2/5
f 36/2/5 34/2/5 35/2/5
f 39/1/5 38/1/5 37/1/5
f 40/1/5 38/1/5 39/1/5
f 43/1/5 42/1/5 41/1/5
f 44/1/5 42/1/5 43/1/5
f 45/1/6 46/1/6 47/1/6
f 47/1/6 46/1/6 48/1/6
