# MagicaVoxel @ Ephtracy

# group
g kerrostalo

# material
mtllib kerrostalo.mtl
usemtl palette

# normals
vn -1 0 0
vn 1 0 0
vn 0 0 1
vn 0 0 -1
vn 0 -1 0
vn 0 1 0

# texcoords
vt 0.974609 0.5
vt 0.982422 0.5
vt 0.990234 0.5

# verts
v -8 0 10
v -8 0 9
v -8 0 5
v -8 0 4
v -8 0 1
v -8 0 -0
v -8 0 -4
v -8 0 -5
v -8 3 9
v -8 3 5
v -8 3 4
v -8 3 1
v -8 3 -0
v -8 3 -4
v -8 5 9
v -8 5 3
v -8 5 2
v -8 5 -4
v -8 8 9
v -8 8 3
v -8 8 2
v -8 8 -4
v -8 9 9
v -8 9 3
v -8 9 2
v -8 9 -4
v -8 12 9
v -8 12 3
v -8 12 2
v -8 12 -4
v -8 13 9
v -8 13 3
v -8 13 2
v -8 13 -4
v -8 16 9
v -8 16 3
v -8 16 2
v -8 16 -4
v -8 17 9
v -8 17 3
v -8 17 2
v -8 17 -4
v -8 20 9
v -8 20 3
v -8 20 2
v -8 20 -4
v -8 21 9
v -8 21 3
v -8 21 2
v -8 21 -4
v -8 24 9
v -8 24 3
v -8 24 2
v -8 24 -4
v -8 25 9
v -8 25 3
v -8 25 2
v -8 25 -4
v -8 28 9
v -8 28 3
v -8 28 2
v -8 28 -4
v -8 29 9
v -8 29 3
v -8 29 2
v -8 29 -4
v -8 32 9
v -8 32 3
v -8 32 2
v -8 32 -4
v -8 33 9
v -8 33 3
v -8 33 2
v -8 33 -4
v -8 36 9
v -8 36 3
v -8 36 2
v -8 36 -4
v -8 37 10
v -8 37 -5
v -6 37 8
v -6 37 7
v -6 37 1
v -6 37 -0
v -6 37 -1
v -6 37 -2
v -6 37 -3
v -6 37 -4
v -6 38 8
v -6 38 7
v -6 38 1
v -6 38 -0
v -6 38 -1
v -6 38 -2
v -6 38 -3
v -6 38 -4
v 2 37 8
v 2 37 5
v 2 39 8
v 2 39 5
v -5 37 8
v -5 37 7
v -5 37 1
v -5 37 -0
v -5 37 -1
v -5 37 -2
v -5 37 -3
v -5 37 -4
v -5 38 8
v -5 38 7
v -5 38 1
v -5 38 -0
v -5 38 -1
v -5 38 -2
v -5 38 -3
v -5 38 -4
v 5 37 8
v 5 37 5
v 5 39 8
v 5 39 5
v 7 0 10
v 7 0 9
v 7 0 5
v 7 0 4
v 7 0 1
v 7 0 -0
v 7 0 -4
v 7 0 -5
v 7 3 9
v 7 3 5
v 7 3 4
v 7 3 1
v 7 3 -0
v 7 3 -4
v 7 5 9
v 7 5 3
v 7 5 2
v 7 5 -4
v 7 8 9
v 7 8 3
v 7 8 2
v 7 8 -4
v 7 9 9
v 7 9 3
v 7 9 2
v 7 9 -4
v 7 12 9
v 7 12 3
v 7 12 2
v 7 12 -4
v 7 13 9
v 7 13 3
v 7 13 2
v 7 13 -4
v 7 16 9
v 7 16 3
v 7 16 2
v 7 16 -4
v 7 17 9
v 7 17 3
v 7 17 2
v 7 17 -4
v 7 20 9
v 7 20 3
v 7 20 2
v 7 20 -4
v 7 21 9
v 7 21 3
v 7 21 2
v 7 21 -4
v 7 24 9
v 7 24 3
v 7 24 2
v 7 24 -4
v 7 25 9
v 7 25 3
v 7 25 2
v 7 25 -4
v 7 28 9
v 7 28 3
v 7 28 2
v 7 28 -4
v 7 29 9
v 7 29 3
v 7 29 2
v 7 29 -4
v 7 32 9
v 7 32 3
v 7 32 2
v 7 32 -4
v 7 33 9
v 7 33 3
v 7 33 2
v 7 33 -4
v 7 36 9
v 7 36 3
v 7 36 2
v 7 36 -4
v 7 37 10
v 7 37 -5
v -8 0 10
v -8 37 10
v -7 0 10
v -7 3 10
v -7 5 10
v -7 8 10
v -7 9 10
v -7 12 10
v -7 13 10
v -7 16 10
v -7 17 10
v -7 20 10
v -7 21 10
v -7 24 10
v -7 25 10
v -7 28 10
v -7 29 10
v -7 32 10
v -7 33 10
v -7 36 10
v -4 0 10
v -4 3 10
v -3 0 10
v -3 3 10
v -1 5 10
v -1 8 10
v -1 9 10
v -1 12 10
v -1 13 10
v -1 16 10
v -1 17 10
v -1 20 10
v -1 21 10
v -1 24 10
v -1 25 10
v -1 28 10
v -1 29 10
v -1 32 10
v -1 33 10
v -1 36 10
v 0 5 10
v 0 8 10
v 0 9 10
v 0 12 10
v 0 13 10
v 0 16 10
v 0 17 10
v 0 20 10
v 0 21 10
v 0 24 10
v 0 25 10
v 0 28 10
v 0 29 10
v 0 32 10
v 0 33 10
v 0 36 10
v 2 0 10
v 2 3 10
v 3 0 10
v 3 3 10
v 6 0 10
v 6 3 10
v 6 5 10
v 6 8 10
v 6 9 10
v 6 12 10
v 6 13 10
v 6 16 10
v 6 17 10
v 6 20 10
v 6 21 10
v 6 24 10
v 6 25 10
v 6 28 10
v 6 29 10
v 6 32 10
v 6 33 10
v 6 36 10
v 7 0 10
v 7 37 10
v -6 37 8
v -6 38 8
v -5 37 8
v -5 38 8
v 2 37 8
v 2 39 8
v 5 37 8
v 5 39 8
v -6 37 1
v -6 38 1
v -5 37 1
v -5 38 1
v -6 37 -1
v -6 38 -1
v -5 37 -1
v -5 38 -1
v -6 37 -3
v -6 38 -3
v -5 37 -3
v -5 38 -3
v -6 37 7
v -6 38 7
v -5 37 7
v -5 38 7
v 2 37 5
v 2 39 5
v 5 37 5
v 5 39 5
v -6 37 -0
v -6 38 -0
v -5 37 -0
v -5 38 -0
v -6 37 -2
v -6 38 -2
v -5 37 -2
v -5 38 -2
v -6 37 -4
v -6 38 -4
v -5 37 -4
v -5 38 -4
v -8 0 -5
v -8 37 -5
v -7 0 -5
v -7 3 -5
v -7 5 -5
v -7 8 -5
v -7 9 -5
v -7 12 -5
v -7 13 -5
v -7 16 -5
v -7 17 -5
v -7 20 -5
v -7 21 -5
v -7 24 -5
v -7 25 -5
v -7 28 -5
v -7 29 -5
v -7 32 -5
v -7 33 -5
v -7 36 -5
v -3 0 -5
v -3 3 -5
v -2 0 -5
v -2 3 -5
v -1 5 -5
v -1 8 -5
v -1 9 -5
v -1 12 -5
v -1 13 -5
v -1 16 -5
v -1 17 -5
v -1 20 -5
v -1 21 -5
v -1 24 -5
v -1 25 -5
v -1 28 -5
v -1 29 -5
v -1 32 -5
v -1 33 -5
v -1 36 -5
v 0 5 -5
v 0 8 -5
v 0 9 -5
v 0 12 -5
v 0 13 -5
v 0 16 -5
v 0 17 -5
v 0 20 -5
v 0 21 -5
v 0 24 -5
v 0 25 -5
v 0 28 -5
v 0 29 -5
v 0 32 -5
v 0 33 -5
v 0 36 -5
v 1 0 -5
v 1 3 -5
v 2 0 -5
v 2 3 -5
v 6 0 -5
v 6 3 -5
v 6 5 -5
v 6 8 -5
v 6 9 -5
v 6 12 -5
v 6 13 -5
v 6 16 -5
v 6 17 -5
v 6 20 -5
v 6 21 -5
v 6 24 -5
v 6 25 -5
v 6 28 -5
v 6 29 -5
v 6 32 -5
v 6 33 -5
v 6 36 -5
v 7 0 -5
v 7 37 -5
v -8 0 10
v -7 0 10
v -4 0 10
v -3 0 10
v 2 0 10
v 3 0 10
v 6 0 10
v 7 0 10
v -8 0 9
v -7 0 9
v -4 0 9
v -3 0 9
v 2 0 9
v 3 0 9
v 6 0 9
v 7 0 9
v -8 0 5
v -7 0 5
v 6 0 5
v 7 0 5
v -8 0 4
v -7 0 4
v 6 0 4
v 7 0 4
v -8 0 1
v -7 0 1
v 6 0 1
v 7 0 1
v -8 0 -0
v -7 0 -0
v 6 0 -0
v 7 0 -0
v -8 0 -4
v -7 0 -4
v -3 0 -4
v -2 0 -4
v 1 0 -4
v 2 0 -4
v 6 0 -4
v 7 0 -4
v -8 0 -5
v -7 0 -5
v -3 0 -5
v -2 0 -5
v 1 0 -5
v 2 0 -5
v 6 0 -5
v 7 0 -5
v -8 37 10
v 7 37 10
v -6 37 8
v -5 37 8
v 2 37 8
v 5 37 8
v -6 37 7
v -5 37 7
v 2 37 5
v 5 37 5
v -6 37 1
v -5 37 1
v -6 37 -0
v -5 37 -0
v -6 37 -1
v -5 37 -1
v -6 37 -2
v -5 37 -2
v -6 37 -3
v -5 37 -3
v -6 37 -4
v -5 37 -4
v -8 37 -5
v 7 37 -5
v -6 38 8
v -5 38 8
v -6 38 7
v -5 38 7
v -6 38 1
v -5 38 1
v -6 38 -0
v -5 38 -0
v -6 38 -1
v -5 38 -1
v -6 38 -2
v -5 38 -2
v -6 38 -3
v -5 38 -3
v -6 38 -4
v -5 38 -4
v 2 39 8
v 5 39 8
v 2 39 5
v 5 39 5

# faces
f 9/2/1 2/2/1 1/2/1
f 9/1/1 3/1/1 2/1/1
f 10/2/1 4/2/1 3/2/1
f 10/1/1 3/1/1 9/1/1
f 11/1/1 5/1/1 4/1/1
f 11/2/1 4/2/1 10/2/1
f 12/2/1 6/2/1 5/2/1
f 12/1/1 5/1/1 11/1/1
f 13/1/1 7/1/1 6/1/1
f 13/2/1 6/2/1 12/2/1
f 14/2/1 8/2/1 7/2/1
f 14/1/1 7/1/1 13/1/1
f 15/2/1 13/2/1 12/2/1
f 15/2/1 12/2/1 11/2/1
f 15/2/1 14/2/1 13/2/1
f 15/2/1 11/2/1 10/2/1
f 15/2/1 10/2/1 9/2/1
f 15/2/1 9/2/1 1/2/1
f 16/2/1 14/2/1 15/2/1
f 17/2/1 14/2/1 16/2/1
f 18/2/1 8/2/1 14/2/1
f 18/2/1 14/2/1 17/2/1
f 19/2/1 15/2/1 1/2/1
f 19/1/1 16/1/1 15/1/1
f 20/2/1 17/2/1 16/2/1
f 20/1/1 16/1/1 19/1/1
f 21/1/1 18/1/1 17/1/1
f 21/2/1 17/2/1 20/2/1
f 22/2/1 8/2/1 18/2/1
f 22/1/1 18/1/1 21/1/1
f 23/2/1 19/2/1 1/2/1
f 23/2/1 21/2/1 20/2/1
f 23/2/1 22/2/1 21/2/1
f 23/2/1 20/2/1 19/2/1
f 24/2/1 22/2/1 23/2/1
f 25/2/1 22/2/1 24/2/1
f 26/2/1 8/2/1 22/2/1
f 26/2/1 22/2/1 25/2/1
f 27/2/1 23/2/1 1/2/1
f 27/1/1 24/1/1 23/1/1
f 28/2/1 25/2/1 24/2/1
f 28/1/1 24/1/1 27/1/1
f 29/1/1 26/1/1 25/1/1
f 29/2/1 25/2/1 28/2/1
f 30/2/1 8/2/1 26/2/1
f 30/1/1 26/1/1 29/1/1
f 31/2/1 27/2/1 1/2/1
f 31/2/1 29/2/1 28/2/1
f 31/2/1 30/2/1 29/2/1
f 31/2/1 28/2/1 27/2/1
f 32/2/1 30/2/1 31/2/1
f 33/2/1 30/2/1 32/2/1
f 34/2/1 8/2/1 30/2/1
f 34/2/1 30/2/1 33/2/1
f 35/2/1 31/2/1 1/2/1
f 35/1/1 32/1/1 31/1/1
f 36/2/1 33/2/1 32/2/1
f 36/1/1 32/1/1 35/1/1
f 37/1/1 34/1/1 33/1/1
f 37/2/1 33/2/1 36/2/1
f 38/2/1 8/2/1 34/2/1
f 38/1/1 34/1/1 37/1/1
f 39/2/1 35/2/1 1/2/1
f 39/2/1 37/2/1 36/2/1
f 39/2/1 38/2/1 37/2/1
f 39/2/1 36/2/1 35/2/1
f 40/2/1 38/2/1 39/2/1
f 41/2/1 38/2/1 40/2/1
f 42/2/1 8/2/1 38/2/1
f 42/2/1 38/2/1 41/2/1
f 43/2/1 39/2/1 1/2/1
f 43/1/1 40/1/1 39/1/1
f 44/2/1 41/2/1 40/2/1
f 44/1/1 40/1/1 43/1/1
f 45/1/1 42/1/1 41/1/1
f 45/2/1 41/2/1 44/2/1
f 46/2/1 8/2/1 42/2/1
f 46/1/1 42/1/1 45/1/1
f 47/2/1 43/2/1 1/2/1
f 47/2/1 45/2/1 44/2/1
f 47/2/1 46/2/1 45/2/1
f 47/2/1 44/2/1 43/2/1
f 48/2/1 46/2/1 47/2/1
f 49/2/1 46/2/1 48/2/1
f 50/2/1 8/2/1 46/2/1
f 50/2/1 46/2/1 49/2/1
f 51/2/1 47/2/1 1/2/1
f 51/1/1 48/1/1 47/1/1
f 52/2/1 49/2/1 48/2/1
f 52/1/1 48/1/1 51/1/1
f 53/1/1 50/1/1 49/1/1
f 53/2/1 49/2/1 52/2/1
f 54/2/1 8/2/1 50/2/1
f 54/1/1 50/1/1 53/1/1
f 55/2/1 51/2/1 1/2/1
f 55/2/1 53/2/1 52/2/1
f 55/2/1 54/2/1 53/2/1
f 55/2/1 52/2/1 51/2/1
f 56/2/1 54/2/1 55/2/1
f 57/2/1 54/2/1 56/2/1
f 58/2/1 8/2/1 54/2/1
f 58/2/1 54/2/1 57/2/1
f 59/2/1 55/2/1 1/2/1
f 59/1/1 56/1/1 55/1/1
f 60/2/1 57/2/1 56/2/1
f 60/1/1 56/1/1 59/1/1
f 61/1/1 58/1/1 57/1/1
f 61/2/1 57/2/1 60/2/1
f 62/2/1 8/2/1 58/2/1
f 62/1/1 58/1/1 61/1/1
f 63/2/1 59/2/1 1/2/1
f 63/2/1 61/2/1 60/2/1
f 63/2/1 62/2/1 61/2/1
f 63/2/1 60/2/1 59/2/1
f 64/2/1 62/2/1 63/2/1
f 65/2/1 62/2/1 64/2/1
f 66/2/1 8/2/1 62/2/1
f 66/2/1 62/2/1 65/2/1
f 67/2/1 63/2/1 1/2/1
f 67/1/1 64/1/1 63/1/1
f 68/2/1 65/2/1 64/2/1
f 68/1/1 64/1/1 67/1/1
f 69/1/1 66/1/1 65/1/1
f 69/2/1 65/2/1 68/2/1
f 70/2/1 8/2/1 66/2/1
f 70/1/1 66/1/1 69/1/1
f 71/2/1 67/2/1 1/2/1
f 71/2/1 69/2/1 68/2/1
f 71/2/1 70/2/1 69/2/1
f 71/2/1 68/2/1 67/2/1
f 72/2/1 70/2/1 71/2/1
f 73/2/1 70/2/1 72/2/1
f 74/2/1 8/2/1 70/2/1
f 74/2/1 70/2/1 73/2/1
f 75/2/1 71/2/1 1/2/1
f 75/1/1 72/1/1 71/1/1
f 76/2/1 73/2/1 72/2/1
f 76/1/1 72/1/1 75/1/1
f 77/1/1 74/1/1 73/1/1
f 77/2/1 73/2/1 76/2/1
f 78/2/1 8/2/1 74/2/1
f 78/1/1 74/1/1 77/1/1
f 79/2/1 75/2/1 1/2/1
f 79/2/1 77/2/1 76/2/1
f 79/2/1 78/2/1 77/2/1
f 79/2/1 76/2/1 75/2/1
f 80/2/1 8/2/1 78/2/1
f 80/2/1 78/2/1 79/2/1
f 89/3/1 82/3/1 81/3/1
f 90/3/1 82/3/1 89/3/1
f 91/3/1 84/3/1 83/3/1
f 92/3/1 84/3/1 91/3/1
f 93/3/1 86/3/1 85/3/1
f 94/3/1 86/3/1 93/3/1
f 95/3/1 88/3/1 87/3/1
f 96/3/1 88/3/1 95/3/1
f 99/3/1 98/3/1 97/3/1
f 100/3/1 98/3/1 99/3/1
f 101/3/2 102/3/2 109/3/2
f 109/3/2 102/3/2 110/3/2
f 103/3/2 104/3/2 111/3/2
f 111/3/2 104/3/2 112/3/2
f 105/3/2 106/3/2 113/3/2
f 113/3/2 106/3/2 114/3/2
f 107/3/2 108/3/2 115/3/2
f 115/3/2 108/3/2 116/3/2
f 117/3/2 118/3/2 119/3/2
f 119/3/2 118/3/2 120/3/2
f 121/2/2 122/2/2 129/2/2
f 122/1/2 123/1/2 129/1/2
f 123/2/2 124/2/2 130/2/2
f 129/1/2 123/1/2 130/1/2
f 124/1/2 125/1/2 131/1/2
f 130/2/2 124/2/2 131/2/2
f 125/2/2 126/2/2 132/2/2
f 131/1/2 125/1/2 132/1/2
f 126/1/2 127/1/2 133/1/2
f 132/2/2 126/2/2 133/2/2
f 127/2/2 128/2/2 134/2/2
f 133/1/2 127/1/2 134/1/2
f 132/2/2 133/2/2 135/2/2
f 131/2/2 132/2/2 135/2/2
f 133/2/2 134/2/2 135/2/2
f 130/2/2 131/2/2 135/2/2
f 129/2/2 130/2/2 135/2/2
f 121/2/2 129/2/2 135/2/2
f 135/2/2 134/2/2 136/2/2
f 136/2/2 134/2/2 137/2/2
f 134/2/2 128/2/2 138/2/2
f 137/2/2 134/2/2 138/2/2
f 121/2/2 135/2/2 139/2/2
f 135/1/2 136/1/2 139/1/2
f 136/2/2 137/2/2 140/2/2
f 139/1/2 136/1/2 140/1/2
f 137/1/2 138/1/2 141/1/2
f 140/2/2 137/2/2 141/2/2
f 138/2/2 128/2/2 142/2/2
f 141/1/2 138/1/2 142/1/2
f 121/2/2 139/2/2 143/2/2
f 140/2/2 141/2/2 143/2/2
f 141/2/2 142/2/2 143/2/2
f 139/2/2 140/2/2 143/2/2
f 143/2/2 142/2/2 144/2/2
f 144/2/2 142/2/2 145/2/2
f 142/2/2 128/2/2 146/2/2
f 145/2/2 142/2/2 146/2/2
f 121/2/2 143/2/2 147/2/2
f 143/1/2 144/1/2 147/1/2
f 144/2/2 145/2/2 148/2/2
f 147/1/2 144/1/2 148/1/2
f 145/1/2 146/1/2 149/1/2
f 148/2/2 145/2/2 149/2/2
f 146/2/2 128/2/2 150/2/2
f 149/1/2 146/1/2 150/1/2
f 121/2/2 147/2/2 151/2/2
f 148/2/2 149/2/2 151/2/2
f 149/2/2 150/2/2 151/2/2
f 147/2/2 148/2/2 151/2/2
f 151/2/2 150/2/2 152/2/2
f 152/2/2 150/2/2 153/2/2
f 150/2/2 128/2/2 154/2/2
f 153/2/2 150/2/2 154/2/2
f 121/2/2 151/2/2 155/2/2
f 151/1/2 152/1/2 155/1/2
f 152/2/2 153/2/2 156/2/2
f 155/1/2 152/1/2 156/1/2
f 153/1/2 154/1/2 157/1/2
f 156/2/2 153/2/2 157/2/2
f 154/2/2 128/2/2 158/2/2
f 157/1/2 154/1/2 158/1/2
f 121/2/2 155/2/2 159/2/2
f 156/2/2 157/2/2 159/2/2
f 157/2/2 158/2/2 159/2/2
f 155/2/2 156/2/2 159/2/2
f 159/2/2 158/2/2 160/2/2
f 160/2/2 158/2/2 161/2/2
f 158/2/2 128/2/2 162/2/2
f 161/2/2 158/2/2 162/2/2
f 121/2/2 159/2/2 163/2/2
f 159/1/2 160/1/2 163/1/2
f 160/2/2 161/2/2 164/2/2
f 163/1/2 160/1/2 164/1/2
f 161/1/2 162/1/2 165/1/2
f 164/2/2 161/2/2 165/2/2
f 162/2/2 128/2/2 166/2/2
f 165/1/2 162/1/2 166/1/2
f 121/2/2 163/2/2 167/2/2
f 164/2/2 165/2/2 167/2/2
f 165/2/2 166/2/2 167/2/2
f 163/2/2 164/2/2 167/2/2
f 167/2/2 166/2/2 168/2/2
f 168/2/2 166/2/2 169/2/2
f 166/2/2 128/2/2 170/2/2
f 169/2/2 166/2/2 170/2/2
f 121/2/2 167/2/2 171/2/2
f 167/1/2 168/1/2 171/1/2
f 168/2/2 169/2/2 172/2/2
f 171/1/2 168/1/2 172/1/2
f 169/1/2 170/1/2 173/1/2
f 172/2/2 169/2/2 173/2/2
f 170/2/2 128/2/2 174/2/2
f 173/1/2 170/1/2 174/1/2
f 121/2/2 171/2/2 175/2/2
f 172/2/2 173/2/2 175/2/2
f 173/2/2 174/2/2 175/2/2
f 171/2/2 172/2/2 175/2/2
f 175/2/2 174/2/2 176/2/2
f 176/2/2 174/2/2 177/2/2
f 174/2/2 128/2/2 178/2/2
f 177/2/2 174/2/2 178/2/2
f 121/2/2 175/2/2 179/2/2
f 175/1/2 176/1/2 179/1/2
f 176/2/2 177/2/2 180/2/2
f 179/1/2 176/1/2 180/1/2
f 177/1/2 178/1/2 181/1/2
f 180/2/2 177/2/2 181/2/2
f 178/2/2 128/2/2 182/2/2
f 181/1/2 178/1/2 182/1/2
f 121/2/2 179/2/2 183/2/2
f 180/2/2 181/2/2 183/2/2
f 181/2/2 182/2/2 183/2/2
f 179/2/2 180/2/2 183/2/2
f 183/2/2 182/2/2 184/2/2
f 184/2/2 182/2/2 185/2/2
f 182/2/2 128/2/2 186/2/2
f 185/2/2 182/2/2 186/2/2
f 121/2/2 183/2/2 187/2/2
f 183/1/2 184/1/2 187/1/2
f 184/2/2 185/2/2 188/2/2
f 187/1/2 184/1/2 188/1/2
f 185/1/2 186/1/2 189/1/2
f 188/2/2 185/2/2 189/2/2
f 186/2/2 128/2/2 190/2/2
f 189/1/2 186/1/2 190/1/2
f 121/2/2 187/2/2 191/2/2
f 188/2/2 189/2/2 191/2/2
f 189/2/2 190/2/2 191/2/2
f 187/2/2 188/2/2 191/2/2
f 191/2/2 190/2/2 192/2/2
f 192/2/2 190/2/2 193/2/2
f 190/2/2 128/2/2 194/2/2
f 193/2/2 190/2/2 194/2/2
f 121/2/2 191/2/2 195/2/2
f 191/1/2 192/1/2 195/1/2
f 192/2/2 193/2/2 196/2/2
f 195/1/2 192/1/2 196/1/2
f 193/1/2 194/1/2 197/1/2
f 196/2/2 193/2/2 197/2/2
f 194/2/2 128/2/2 198/2/2
f 197/1/2 194/1/2 198/1/2
f 121/2/2 195/2/2 199/2/2
f 196/2/2 197/2/2 199/2/2
f 197/2/2 198/2/2 199/2/2
f 195/2/2 196/2/2 199/2/2
f 198/2/2 128/2/2 200/2/2
f 199/2/2 198/2/2 200/2/2
f 203/2/3 202/2/3 201/2/3
f 204/2/3 202/2/3 203/2/3
f 205/2/3 202/2/3 204/2/3
f 206/2/3 202/2/3 205/2/3
f 207/2/3 202/2/3 206/2/3
f 208/2/3 202/2/3 207/2/3
f 209/2/3 202/2/3 208/2/3
f 210/2/3 202/2/3 209/2/3
f 211/2/3 202/2/3 210/2/3
f 212/2/3 202/2/3 211/2/3
f 213/2/3 202/2/3 212/2/3
f 214/2/3 202/2/3 213/2/3
f 215/2/3 202/2/3 214/2/3
f 216/2/3 202/2/3 215/2/3
f 217/2/3 202/2/3 216/2/3
f 218/2/3 202/2/3 217/2/3
f 219/2/3 202/2/3 218/2/3
f 220/2/3 202/2/3 219/2/3
f 221/1/3 204/1/3 203/1/3
f 222/2/3 205/2/3 204/2/3
f 222/1/3 204/1/3 221/1/3
f 223/2/3 222/2/3 221/2/3
f 224/2/3 205/2/3 222/2/3
f 224/2/3 222/2/3 223/2/3
f 225/1/3 206/1/3 205/1/3
f 225/2/3 205/2/3 224/2/3
f 226/2/3 207/2/3 206/2/3
f 226/1/3 206/1/3 225/1/3
f 227/1/3 208/1/3 207/1/3
f 227/2/3 207/2/3 226/2/3
f 228/2/3 209/2/3 208/2/3
f 228/1/3 208/1/3 227/1/3
f 229/1/3 210/1/3 209/1/3
f 229/2/3 209/2/3 228/2/3
f 230/2/3 211/2/3 210/2/3
f 230/1/3 210/1/3 229/1/3
f 231/1/3 212/1/3 211/1/3
f 231/2/3 211/2/3 230/2/3
f 232/2/3 213/2/3 212/2/3
f 232/1/3 212/1/3 231/1/3
f 233/1/3 214/1/3 213/1/3
f 233/2/3 213/2/3 232/2/3
f 234/2/3 215/2/3 214/2/3
f 234/1/3 214/1/3 233/1/3
f 235/1/3 216/1/3 215/1/3
f 235/2/3 215/2/3 234/2/3
f 236/2/3 217/2/3 216/2/3
f 236/1/3 216/1/3 235/1/3
f 237/1/3 218/1/3 217/1/3
f 237/2/3 217/2/3 236/2/3
f 238/2/3 219/2/3 218/2/3
f 238/1/3 218/1/3 237/1/3
f 239/1/3 220/1/3 219/1/3
f 239/2/3 219/2/3 238/2/3
f 240/2/3 202/2/3 220/2/3
f 240/1/3 220/1/3 239/1/3
f 241/2/3 239/2/3 238/2/3
f 241/2/3 225/2/3 224/2/3
f 241/2/3 240/2/3 239/2/3
f 241/2/3 226/2/3 225/2/3
f 241/2/3 238/2/3 237/2/3
f 241/2/3 237/2/3 236/2/3
f 241/2/3 236/2/3 235/2/3
f 241/2/3 235/2/3 234/2/3
f 241/2/3 234/2/3 233/2/3
f 241/2/3 233/2/3 232/2/3
f 241/2/3 232/2/3 231/2/3
f 241/2/3 231/2/3 230/2/3
f 241/2/3 230/2/3 229/2/3
f 241/2/3 229/2/3 228/2/3
f 241/2/3 228/2/3 227/2/3
f 241/2/3 227/2/3 226/2/3
f 242/2/3 240/2/3 241/2/3
f 243/2/3 240/2/3 242/2/3
f 244/2/3 240/2/3 243/2/3
f 245/2/3 240/2/3 244/2/3
f 246/2/3 240/2/3 245/2/3
f 247/2/3 240/2/3 246/2/3
f 248/2/3 240/2/3 247/2/3
f 249/2/3 240/2/3 248/2/3
f 250/2/3 240/2/3 249/2/3
f 251/2/3 240/2/3 250/2/3
f 252/2/3 240/2/3 251/2/3
f 253/2/3 240/2/3 252/2/3
f 254/2/3 240/2/3 253/2/3
f 255/2/3 240/2/3 254/2/3
f 256/2/3 202/2/3 240/2/3
f 256/2/3 240/2/3 255/2/3
f 257/1/3 224/1/3 223/1/3
f 258/2/3 241/2/3 224/2/3
f 258/1/3 224/1/3 257/1/3
f 259/2/3 258/2/3 257/2/3
f 260/2/3 241/2/3 258/2/3
f 260/2/3 258/2/3 259/2/3
f 261/1/3 260/1/3 259/1/3
f 262/2/3 241/2/3 260/2/3
f 262/1/3 260/1/3 261/1/3
f 263/1/3 242/1/3 241/1/3
f 263/2/3 241/2/3 262/2/3
f 264/2/3 243/2/3 242/2/3
f 264/1/3 242/1/3 263/1/3
f 265/1/3 244/1/3 243/1/3
f 265/2/3 243/2/3 264/2/3
f 266/2/3 245/2/3 244/2/3
f 266/1/3 244/1/3 265/1/3
f 267/1/3 246/1/3 245/1/3
f 267/2/3 245/2/3 266/2/3
f 268/2/3 247/2/3 246/2/3
f 268/1/3 246/1/3 267/1/3
f 269/1/3 248/1/3 247/1/3
f 269/2/3 247/2/3 268/2/3
f 270/2/3 249/2/3 248/2/3
f 270/1/3 248/1/3 269/1/3
f 271/1/3 250/1/3 249/1/3
f 271/2/3 249/2/3 270/2/3
f 272/2/3 251/2/3 250/2/3
f 272/1/3 250/1/3 271/1/3
f 273/1/3 252/1/3 251/1/3
f 273/2/3 251/2/3 272/2/3
f 274/2/3 253/2/3 252/2/3
f 274/1/3 252/1/3 273/1/3
f 275/1/3 254/1/3 253/1/3
f 275/2/3 253/2/3 274/2/3
f 276/2/3 255/2/3 254/2/3
f 276/1/3 254/1/3 275/1/3
f 277/1/3 256/1/3 255/1/3
f 277/2/3 255/2/3 276/2/3
f 278/2/3 202/2/3 256/2/3
f 278/1/3 256/1/3 277/1/3
f 279/2/3 275/2/3 274/2/3
f 279/2/3 277/2/3 276/2/3
f 279/2/3 278/2/3 277/2/3
f 279/2/3 262/2/3 261/2/3
f 279/2/3 263/2/3 262/2/3
f 279/2/3 276/2/3 275/2/3
f 279/2/3 274/2/3 273/2/3
f 279/2/3 273/2/3 272/2/3
f 279/2/3 272/2/3 271/2/3
f 279/2/3 271/2/3 270/2/3
f 279/2/3 270/2/3 269/2/3
f 279/2/3 269/2/3 268/2/3
f 279/2/3 268/2/3 267/2/3
f 279/2/3 267/2/3 266/2/3
f 279/2/3 266/2/3 265/2/3
f 279/2/3 265/2/3 264/2/3
f 279/2/3 264/2/3 263/2/3
f 280/2/3 202/2/3 278/2/3
f 280/2/3 278/2/3 279/2/3
f 283/3/3 282/3/3 281/3/3
f 284/3/3 282/3/3 283/3/3
f 287/3/3 286/3/3 285/3/3
f 288/3/3 286/3/3 287/3/3
f 291/3/3 290/3/3 289/3/3
f 292/3/3 290/3/3 291/3/3
f 295/3/3 294/3/3 293/3/3
f 296/3/3 294/3/3 295/3/3
f 299/3/3 298/3/3 297/3/3
f 300/3/3 298/3/3 299/3/3
f 301/3/4 302/3/4 303/3/4
f 303/3/4 302/3/4 304/3/4
f 305/3/4 306/3/4 307/3/4
f 307/3/4 306/3/4 308/3/4
f 309/3/4 310/3/4 311/3/4
f 311/3/4 310/3/4 312/3/4
f 313/3/4 314/3/4 315/3/4
f 315/3/4 314/3/4 316/3/4
f 317/3/4 318/3/4 319/3/4
f 319/3/4 318/3/4 320/3/4
f 321/2/4 322/2/4 323/2/4
f 323/2/4 322/2/4 324/2/4
f 324/2/4 322/2/4 325/2/4
f 325/2/4 322/2/4 326/2/4
f 326/2/4 322/2/4 327/2/4
f 327/2/4 322/2/4 328/2/4
f 328/2/4 322/2/4 329/2/4
f 329/2/4 322/2/4 330/2/4
f 330/2/4 322/2/4 331/2/4
f 331/2/4 322/2/4 332/2/4
f 332/2/4 322/2/4 333/2/4
f 333/2/4 322/2/4 334/2/4
f 334/2/4 322/2/4 335/2/4
f 335/2/4 322/2/4 336/2/4
f 336/2/4 322/2/4 337/2/4
f 337/2/4 322/2/4 338/2/4
f 338/2/4 322/2/4 339/2/4
f 339/2/4 322/2/4 340/2/4
f 323/1/4 324/1/4 341/1/4
f 324/2/4 325/2/4 342/2/4
f 341/1/4 324/1/4 342/1/4
f 341/2/4 342/2/4 343/2/4
f 342/2/4 325/2/4 344/2/4
f 343/2/4 342/2/4 344/2/4
f 325/1/4 326/1/4 345/1/4
f 344/2/4 325/2/4 345/2/4
f 326/2/4 327/2/4 346/2/4
f 345/1/4 326/1/4 346/1/4
f 327/1/4 328/1/4 347/1/4
f 346/2/4 327/2/4 347/2/4
f 328/2/4 329/2/4 348/2/4
f 347/1/4 328/1/4 348/1/4
f 329/1/4 330/1/4 349/1/4
f 348/2/4 329/2/4 349/2/4
f 330/2/4 331/2/4 350/2/4
f 349/1/4 330/1/4 350/1/4
f 331/1/4 332/1/4 351/1/4
f 350/2/4 331/2/4 351/2/4
f 332/2/4 333/2/4 352/2/4
f 351/1/4 332/1/4 352/1/4
f 333/1/4 334/1/4 353/1/4
f 352/2/4 333/2/4 353/2/4
f 334/2/4 335/2/4 354/2/4
f 353/1/4 334/1/4 354/1/4
f 335/1/4 336/1/4 355/1/4
f 354/2/4 335/2/4 355/2/4
f 336/2/4 337/2/4 356/2/4
f 355/1/4 336/1/4 356/1/4
f 337/1/4 338/1/4 357/1/4
f 356/2/4 337/2/4 357/2/4
f 338/2/4 339/2/4 358/2/4
f 357/1/4 338/1/4 358/1/4
f 339/1/4 340/1/4 359/1/4
f 358/2/4 339/2/4 359/2/4
f 340/2/4 322/2/4 360/2/4
f 359/1/4 340/1/4 360/1/4
f 358/2/4 359/2/4 361/2/4
f 344/2/4 345/2/4 361/2/4
f 359/2/4 360/2/4 361/2/4
f 345/2/4 346/2/4 361/2/4
f 357/2/4 358/2/4 361/2/4
f 356/2/4 357/2/4 361/2/4
f 355/2/4 356/2/4 361/2/4
f 354/2/4 355/2/4 361/2/4
f 353/2/4 354/2/4 361/2/4
f 352/2/4 353/2/4 361/2/4
f 351/2/4 352/2/4 361/2/4
f 350/2/4 351/2/4 361/2/4
f 349/2/4 350/2/4 361/2/4
f 348/2/4 349/2/4 361/2/4
f 347/2/4 348/2/4 361/2/4
f 346/2/4 347/2/4 361/2/4
f 361/2/4 360/2/4 362/2/4
f 362/2/4 360/2/4 363/2/4
f 363/2/4 360/2/4 364/2/4
f 364/2/4 360/2/4 365/2/4
f 365/2/4 360/2/4 366/2/4
f 366/2/4 360/2/4 367/2/4
f 367/2/4 360/2/4 368/2/4
f 368/2/4 360/2/4 369/2/4
f 369/2/4 360/2/4 370/2/4
f 370/2/4 360/2/4 371/2/4
f 371/2/4 360/2/4 372/2/4
f 372/2/4 360/2/4 373/2/4
f 373/2/4 360/2/4 374/2/4
f 374/2/4 360/2/4 375/2/4
f 360/2/4 322/2/4 376/2/4
f 375/2/4 360/2/4 376/2/4
f 343/1/4 344/1/4 377/1/4
f 344/2/4 361/2/4 378/2/4
f 377/1/4 344/1/4 378/1/4
f 377/2/4 378/2/4 379/2/4
f 378/2/4 361/2/4 380/2/4
f 379/2/4 378/2/4 380/2/4
f 379/1/4 380/1/4 381/1/4
f 380/2/4 361/2/4 382/2/4
f 381/1/4 380/1/4 382/1/4
f 361/1/4 362/1/4 383/1/4
f 382/2/4 361/2/4 383/2/4
f 362/2/4 363/2/4 384/2/4
f 383/1/4 362/1/4 384/1/4
f 363/1/4 364/1/4 385/1/4
f 384/2/4 363/2/4 385/2/4
f 364/2/4 365/2/4 386/2/4
f 385/1/4 364/1/4 386/1/4
f 365/1/4 366/1/4 387/1/4
f 386/2/4 365/2/4 387/2/4
f 366/2/4 367/2/4 388/2/4
f 387/1/4 366/1/4 388/1/4
f 367/1/4 368/1/4 389/1/4
f 388/2/4 367/2/4 389/2/4
f 368/2/4 369/2/4 390/2/4
f 389/1/4 368/1/4 390/1/4
f 369/1/4 370/1/4 391/1/4
f 390/2/4 369/2/4 391/2/4
f 370/2/4 371/2/4 392/2/4
f 391/1/4 370/1/4 392/1/4
f 371/1/4 372/1/4 393/1/4
f 392/2/4 371/2/4 393/2/4
f 372/2/4 373/2/4 394/2/4
f 393/1/4 372/1/4 394/1/4
f 373/1/4 374/1/4 395/1/4
f 394/2/4 373/2/4 395/2/4
f 374/2/4 375/2/4 396/2/4
f 395/1/4 374/1/4 396/1/4
f 375/1/4 376/1/4 397/1/4
f 396/2/4 375/2/4 397/2/4
f 376/2/4 322/2/4 398/2/4
f 397/1/4 376/1/4 398/1/4
f 394/2/4 395/2/4 399/2/4
f 396/2/4 397/2/4 399/2/4
f 397/2/4 398/2/4 399/2/4
f 381/2/4 382/2/4 399/2/4
f 382/2/4 383/2/4 399/2/4
f 395/2/4 396/2/4 399/2/4
f 393/2/4 394/2/4 399/2/4
f 392/2/4 393/2/4 399/2/4
f 391/2/4 392/2/4 399/2/4
f 390/2/4 391/2/4 399/2/4
f 389/2/4 390/2/4 399/2/4
f 388/2/4 389/2/4 399/2/4
f 387/2/4 388/2/4 399/2/4
f 386/2/4 387/2/4 399/2/4
f 385/2/4 386/2/4 399/2/4
f 384/2/4 385/2/4 399/2/4
f 383/2/4 384/2/4 399/2/4
f 398/2/4 322/2/4 400/2/4
f 399/2/4 398/2/4 400/2/4
f 409/2/5 402/2/5 401/2/5
f 410/1/5 403/1/5 402/1/5
f 410/2/5 402/2/5 409/2/5
f 411/2/5 404/2/5 403/2/5
f 411/1/5 403/1/5 410/1/5
f 412/1/5 405/1/5 404/1/5
f 412/2/5 404/2/5 411/2/5
f 413/2/5 406/2/5 405/2/5
f 413/1/5 405/1/5 412/1/5
f 414/1/5 407/1/5 406/1/5
f 414/2/5 406/2/5 413/2/5
f 415/2/5 408/2/5 407/2/5
f 415/1/5 407/1/5 414/1/5
f 416/2/5 408/2/5 415/2/5
f 417/1/5 410/1/5 409/1/5
f 418/2/5 414/2/5 413/2/5
f 418/1/5 410/1/5 417/1/5
f 418/2/5 411/2/5 410/2/5
f 418/2/5 412/2/5 411/2/5
f 418/2/5 415/2/5 414/2/5
f 418/2/5 413/2/5 412/2/5
f 419/1/5 416/1/5 415/1/5
f 419/2/5 415/2/5 418/2/5
f 420/1/5 416/1/5 419/1/5
f 421/2/5 418/2/5 417/2/5
f 421/2/5 419/2/5 418/2/5
f 421/2/5 420/2/5 419/2/5
f 422/2/5 420/2/5 421/2/5
f 423/2/5 420/2/5 422/2/5
f 424/2/5 420/2/5 423/2/5
f 425/1/5 422/1/5 421/1/5
f 426/2/5 423/2/5 422/2/5
f 426/1/5 422/1/5 425/1/5
f 427/1/5 424/1/5 423/1/5
f 427/2/5 423/2/5 426/2/5
f 428/1/5 424/1/5 427/1/5
f 429/2/5 426/2/5 425/2/5
f 429/2/5 427/2/5 426/2/5
f 429/2/5 428/2/5 427/2/5
f 430/2/5 428/2/5 429/2/5
f 431/2/5 428/2/5 430/2/5
f 432/2/5 428/2/5 431/2/5
f 433/1/5 430/1/5 429/1/5
f 434/2/5 431/2/5 430/2/5
f 434/1/5 430/1/5 433/1/5
f 435/2/5 431/2/5 434/2/5
f 436/2/5 431/2/5 435/2/5
f 437/2/5 431/2/5 436/2/5
f 438/2/5 431/2/5 437/2/5
f 439/1/5 432/1/5 431/1/5
f 439/2/5 431/2/5 438/2/5
f 440/1/5 432/1/5 439/1/5
f 441/2/5 434/2/5 433/2/5
f 442/1/5 435/1/5 434/1/5
f 442/2/5 434/2/5 441/2/5
f 443/2/5 436/2/5 435/2/5
f 443/1/5 435/1/5 442/1/5
f 444/1/5 437/1/5 436/1/5
f 444/2/5 436/2/5 443/2/5
f 445/2/5 438/2/5 437/2/5
f 445/1/5 437/1/5 444/1/5
f 446/1/5 439/1/5 438/1/5
f 446/2/5 438/2/5 445/2/5
f 447/2/5 440/2/5 439/2/5
f 447/1/5 439/1/5 446/1/5
f 448/2/5 440/2/5 447/2/5
f 449/2/6 450/2/6 451/2/6
f 451/2/6 450/2/6 452/2/6
f 452/2/6 450/2/6 453/2/6
f 453/2/6 450/2/6 454/2/6
f 449/2/6 451/2/6 455/2/6
f 452/2/6 453/2/6 456/2/6
f 456/2/6 453/2/6 457/2/6
f 455/2/6 456/2/6 457/2/6
f 454/2/6 450/2/6 458/2/6
f 455/2/6 457/2/6 459/2/6
f 457/2/6 458/2/6 459/2/6
f 449/2/6 455/2/6 459/2/6
f 459/2/6 458/2/6 460/2/6
f 449/2/6 459/2/6 461/2/6
f 460/2/6 458/2/6 462/2/6
f 449/2/6 461/2/6 463/2/6
f 461/2/6 462/2/6 463/2/6
f 462/2/6 458/2/6 464/2/6
f 463/2/6 462/2/6 464/2/6
f 449/2/6 463/2/6 465/2/6
f 464/2/6 458/2/6 466/2/6
f 449/2/6 465/2/6 467/2/6
f 465/2/6 466/2/6 467/2/6
f 466/2/6 458/2/6 468/2/6
f 467/2/6 466/2/6 468/2/6
f 449/2/6 467/2/6 469/2/6
f 468/2/6 458/2/6 470/2/6
f 449/2/6 469/2/6 471/2/6
f 469/2/6 470/2/6 471/2/6
f 458/2/6 450/2/6 472/2/6
f 471/2/6 470/2/6 472/2/6
f 470/2/6 458/2/6 472/2/6
f 473/3/6 474/3/6 475/3/6
f 475/3/6 474/3/6 476/3/6
f 477/3/6 478/3/6 479/3/6
f 479/3/6 478/3/6 480/3/6
f 481/3/6 482/3/6 483/3/6
f 483/3/6 482/3/6 484/3/6
f 485/3/6 486/3/6 487/3/6
f 487/3/6 486/3/6 488/3/6
f 489/3/6 490/3/6 491/3/6
f 491/3/6 490/3/6 492/3/6
