# MagicaVoxel @ Ephtracy

# group
g radiomasto

# material
mtllib radiomasto.mtl
usemtl palette

# normals
vn -1 0 0
vn 1 0 0
vn 0 0 1
vn 0 0 -1
vn 0 -1 0
vn 0 1 0

# texcoords
vt 0.849609 0.5
vt 0.974609 0.5
vt 0.986328 0.5

# verts
v -4 36 -2
v -4 36 -5
v -4 39 -2
v -4 39 -5
v -3 0 -2
v -3 0 -3
v -3 0 -4
v -3 0 -5
v -3 10 -3
v -3 10 -4
v -3 27 -3
v -3 27 -4
v -3 28 -3
v -3 28 -4
v -3 30 -3
v -3 30 -4
v -3 31 -3
v -3 31 -4
v -3 33 -3
v -3 33 -4
v -3 34 -3
v -3 34 -4
v -3 36 -1
v -3 36 -2
v -3 36 -5
v -3 36 -6
v -3 39 -1
v -3 39 -2
v -3 39 -5
v -3 39 -6
v -3 40 -2
v -3 40 -5
v 0 0 -2
v 0 0 -3
v 0 0 -4
v 0 0 -5
v 0 10 -3
v 0 10 -4
v 0 27 -3
v 0 27 -4
v 0 28 -3
v 0 28 -4
v 0 30 -3
v 0 30 -4
v 0 31 -3
v 0 31 -4
v 0 33 -3
v 0 33 -4
v 0 34 -3
v 0 34 -4
v 0 36 -1
v 0 36 -2
v 0 36 -5
v 0 36 -6
v 0 39 -1
v 0 39 -2
v 0 39 -5
v 0 39 -6
v 0 40 -2
v 0 40 -5
v 1 36 -2
v 1 36 -5
v 1 39 -2
v 1 39 -5
v -3 36 -1
v -3 39 -1
v 0 36 -1
v 0 39 -1
v -4 36 -2
v -4 39 -2
v -3 0 -2
v -3 36 -2
v -3 39 -2
v -3 40 -2
v -2 0 -2
v -2 10 -2
v -2 27 -2
v -2 28 -2
v -2 30 -2
v -2 31 -2
v -2 33 -2
v -2 34 -2
v -1 0 -2
v -1 10 -2
v -1 27 -2
v -1 28 -2
v -1 30 -2
v -1 31 -2
v -1 33 -2
v -1 34 -2
v 0 0 -2
v 0 36 -2
v 0 39 -2
v 0 40 -2
v 1 36 -2
v 1 39 -2
v -4 36 -5
v -4 39 -5
v -3 0 -5
v -3 36 -5
v -3 39 -5
v -3 40 -5
v -2 0 -5
v -2 10 -5
v -2 27 -5
v -2 28 -5
v -2 30 -5
v -2 31 -5
v -2 33 -5
v -2 34 -5
v -1 0 -5
v -1 10 -5
v -1 27 -5
v -1 28 -5
v -1 30 -5
v -1 31 -5
v -1 33 -5
v -1 34 -5
v 0 0 -5
v 0 36 -5
v 0 39 -5
v 0 40 -5
v 1 36 -5
v 1 39 -5
v -3 36 -6
v -3 39 -6
v 0 36 -6
v 0 39 -6
v -3 0 -2
v -2 0 -2
v -1 0 -2
v 0 0 -2
v -3 0 -3
v -2 0 -3
v -1 0 -3
v 0 0 -3
v -3 0 -4
v -2 0 -4
v -1 0 -4
v 0 0 -4
v -3 0 -5
v -2 0 -5
v -1 0 -5
v 0 0 -5
v -3 36 -1
v 0 36 -1
v -4 36 -2
v -3 36 -2
v 0 36 -2
v 1 36 -2
v -4 36 -5
v -3 36 -5
v 0 36 -5
v 1 36 -5
v -3 36 -6
v 0 36 -6
v -3 39 -1
v 0 39 -1
v -4 39 -2
v -3 39 -2
v 0 39 -2
v 1 39 -2
v -4 39 -5
v -3 39 -5
v 0 39 -5
v 1 39 -5
v -3 39 -6
v 0 39 -6
v -3 40 -2
v 0 40 -2
v -2 40 -3
v -1 40 -3
v -2 40 -4
v -1 40 -4
v -3 40 -5
v 0 40 -5

# faces
f 3/3/1 2/3/1 1/3/1
f 4/3/1 2/3/1 3/3/1
f 9/2/1 6/2/1 5/2/1
f 9/3/1 7/3/1 6/3/1
f 10/2/1 8/2/1 7/2/1
f 10/3/1 7/3/1 9/3/1
f 11/2/1 9/2/1 5/2/1
f 11/2/1 10/2/1 9/2/1
f 12/2/1 8/2/1 10/2/1
f 12/2/1 10/2/1 11/2/1
f 13/2/1 11/2/1 5/2/1
f 13/1/1 12/1/1 11/1/1
f 14/2/1 8/2/1 12/2/1
f 14/1/1 12/1/1 13/1/1
f 15/2/1 13/2/1 5/2/1
f 15/2/1 14/2/1 13/2/1
f 16/2/1 8/2/1 14/2/1
f 16/2/1 14/2/1 15/2/1
f 17/2/1 15/2/1 5/2/1
f 17/1/1 16/1/1 15/1/1
f 18/2/1 8/2/1 16/2/1
f 18/1/1 16/1/1 17/1/1
f 19/2/1 17/2/1 5/2/1
f 19/2/1 18/2/1 17/2/1
f 20/2/1 8/2/1 18/2/1
f 20/2/1 18/2/1 19/2/1
f 21/2/1 19/2/1 5/2/1
f 21/1/1 20/1/1 19/1/1
f 22/2/1 8/2/1 20/2/1
f 22/1/1 20/1/1 21/1/1
f 24/2/1 21/2/1 5/2/1
f 24/2/1 22/2/1 21/2/1
f 25/2/1 8/2/1 22/2/1
f 25/2/1 22/2/1 24/2/1
f 27/3/1 24/3/1 23/3/1
f 28/3/1 24/3/1 27/3/1
f 29/3/1 26/3/1 25/3/1
f 30/3/1 26/3/1 29/3/1
f 31/3/1 29/3/1 28/3/1
f 32/3/1 29/3/1 31/3/1
f 33/2/2 34/2/2 37/2/2
f 34/3/2 35/3/2 37/3/2
f 35/2/2 36/2/2 38/2/2
f 37/3/2 35/3/2 38/3/2
f 33/2/2 37/2/2 39/2/2
f 37/2/2 38/2/2 39/2/2
f 38/2/2 36/2/2 40/2/2
f 39/2/2 38/2/2 40/2/2
f 33/2/2 39/2/2 41/2/2
f 39/1/2 40/1/2 41/1/2
f 40/2/2 36/2/2 42/2/2
f 41/1/2 40/1/2 42/1/2
f 33/2/2 41/2/2 43/2/2
f 41/2/2 42/2/2 43/2/2
f 42/2/2 36/2/2 44/2/2
f 43/2/2 42/2/2 44/2/2
f 33/2/2 43/2/2 45/2/2
f 43/1/2 44/1/2 45/1/2
f 44/2/2 36/2/2 46/2/2
f 45/1/2 44/1/2 46/1/2
f 33/2/2 45/2/2 47/2/2
f 45/2/2 46/2/2 47/2/2
f 46/2/2 36/2/2 48/2/2
f 47/2/2 46/2/2 48/2/2
f 33/2/2 47/2/2 49/2/2
f 47/1/2 48/1/2 49/1/2
f 48/2/2 36/2/2 50/2/2
f 49/1/2 48/1/2 50/1/2
f 33/2/2 49/2/2 52/2/2
f 49/2/2 50/2/2 52/2/2
f 50/2/2 36/2/2 53/2/2
f 52/2/2 50/2/2 53/2/2
f 51/3/2 52/3/2 55/3/2
f 55/3/2 52/3/2 56/3/2
f 53/3/2 54/3/2 57/3/2
f 57/3/2 54/3/2 58/3/2
f 56/3/2 57/3/2 59/3/2
f 59/3/2 57/3/2 60/3/2
f 61/3/2 62/3/2 63/3/2
f 63/3/2 62/3/2 64/3/2
f 67/3/3 66/3/3 65/3/3
f 68/3/3 66/3/3 67/3/3
f 72/3/3 70/3/3 69/3/3
f 73/3/3 70/3/3 72/3/3
f 75/2/3 72/2/3 71/2/3
f 76/2/3 72/2/3 75/2/3
f 77/2/3 72/2/3 76/2/3
f 78/2/3 72/2/3 77/2/3
f 79/2/3 72/2/3 78/2/3
f 80/2/3 72/2/3 79/2/3
f 81/2/3 72/2/3 80/2/3
f 82/2/3 72/2/3 81/2/3
f 83/3/3 76/3/3 75/3/3
f 84/2/3 77/2/3 76/2/3
f 84/3/3 76/3/3 83/3/3
f 85/1/3 78/1/3 77/1/3
f 85/2/3 77/2/3 84/2/3
f 86/2/3 79/2/3 78/2/3
f 86/1/3 78/1/3 85/1/3
f 87/1/3 80/1/3 79/1/3
f 87/2/3 79/2/3 86/2/3
f 88/2/3 81/2/3 80/2/3
f 88/1/3 80/1/3 87/1/3
f 89/1/3 82/1/3 81/1/3
f 89/2/3 81/2/3 88/2/3
f 90/2/3 72/2/3 82/2/3
f 90/1/3 82/1/3 89/1/3
f 91/2/3 89/2/3 88/2/3
f 91/2/3 84/2/3 83/2/3
f 91/2/3 90/2/3 89/2/3
f 91/2/3 88/2/3 87/2/3
f 91/2/3 87/2/3 86/2/3
f 91/2/3 86/2/3 85/2/3
f 91/2/3 85/2/3 84/2/3
f 92/2/3 72/2/3 90/2/3
f 92/2/3 90/2/3 91/2/3
f 93/3/3 74/3/3 73/3/3
f 94/3/3 74/3/3 93/3/3
f 95/3/3 93/3/3 92/3/3
f 96/3/3 93/3/3 95/3/3
f 97/3/4 98/3/4 100/3/4
f 100/3/4 98/3/4 101/3/4
f 99/2/4 100/2/4 103/2/4
f 103/2/4 100/2/4 104/2/4
f 104/2/4 100/2/4 105/2/4
f 105/2/4 100/2/4 106/2/4
f 106/2/4 100/2/4 107/2/4
f 107/2/4 100/2/4 108/2/4
f 108/2/4 100/2/4 109/2/4
f 109/2/4 100/2/4 110/2/4
f 103/3/4 104/3/4 111/3/4
f 104/2/4 105/2/4 112/2/4
f 111/3/4 104/3/4 112/3/4
f 105/1/4 106/1/4 113/1/4
f 112/2/4 105/2/4 113/2/4
f 106/2/4 107/2/4 114/2/4
f 113/1/4 106/1/4 114/1/4
f 107/1/4 108/1/4 115/1/4
f 114/2/4 107/2/4 115/2/4
f 108/2/4 109/2/4 116/2/4
f 115/1/4 108/1/4 116/1/4
f 109/1/4 110/1/4 117/1/4
f 116/2/4 109/2/4 117/2/4
f 110/2/4 100/2/4 118/2/4
f 117/1/4 110/1/4 118/1/4
f 116/2/4 117/2/4 119/2/4
f 111/2/4 112/2/4 119/2/4
f 117/2/4 118/2/4 119/2/4
f 115/2/4 116/2/4 119/2/4
f 114/2/4 115/2/4 119/2/4
f 113/2/4 114/2/4 119/2/4
f 112/2/4 113/2/4 119/2/4
f 118/2/4 100/2/4 120/2/4
f 119/2/4 118/2/4 120/2/4
f 101/3/4 102/3/4 121/3/4
f 121/3/4 102/3/4 122/3/4
f 120/3/4 121/3/4 123/3/4
f 123/3/4 121/3/4 124/3/4
f 125/3/4 126/3/4 127/3/4
f 127/3/4 126/3/4 128/3/4
f 133/2/5 130/2/5 129/2/5
f 134/3/5 131/3/5 130/3/5
f 134/2/5 130/2/5 133/2/5
f 135/2/5 132/2/5 131/2/5
f 135/3/5 131/3/5 134/3/5
f 136/2/5 132/2/5 135/2/5
f 137/3/5 134/3/5 133/3/5
f 138/2/5 135/2/5 134/2/5
f 138/3/5 134/3/5 137/3/5
f 139/3/5 136/3/5 135/3/5
f 139/2/5 135/2/5 138/2/5
f 140/3/5 136/3/5 139/3/5
f 141/2/5 138/2/5 137/2/5
f 142/3/5 139/3/5 138/3/5
f 142/2/5 138/2/5 141/2/5
f 143/2/5 140/2/5 139/2/5
f 143/3/5 139/3/5 142/3/5
f 144/2/5 140/2/5 143/2/5
f 148/3/5 146/3/5 145/3/5
f 149/3/5 146/3/5 148/3/5
f 151/3/5 148/3/5 147/3/5
f 152/3/5 148/3/5 151/3/5
f 153/3/5 150/3/5 149/3/5
f 154/3/5 150/3/5 153/3/5
f 155/3/5 153/3/5 152/3/5
f 156/3/5 153/3/5 155/3/5
f 157/3/6 158/3/6 160/3/6
f 160/3/6 158/3/6 161/3/6
f 159/3/6 160/3/6 163/3/6
f 163/3/6 160/3/6 164/3/6
f 161/3/6 162/3/6 165/3/6
f 165/3/6 162/3/6 166/3/6
f 164/3/6 165/3/6 167/3/6
f 167/3/6 165/3/6 168/3/6
f 169/3/6 170/3/6 171/3/6
f 171/3/6 170/3/6 172/3/6
f 169/3/6 171/3/6 173/3/6
f 171/1/6 172/1/6 173/1/6
f 172/3/6 170/3/6 174/3/6
f 173/1/6 172/1/6 174/1/6
f 169/3/6 173/3/6 175/3/6
f 173/3/6 174/3/6 175/3/6
f 174/3/6 170/3/6 176/3/6
f 175/3/6 174/3/6 176/3/6
